<svg class="main-svg" xmlns="http://www.w3.org/2000/svg" xmlns:xlink="http://www.w3.org/1999/xlink" width="1750" height="1400" style="" viewBox="0 0 1750 1400"><rect x="0" y="0" width="1750" height="1400" style="fill: rgb(255, 255, 255); fill-opacity: 1;"/><defs id="defs-4800c7"><g class="clips"><clipPath id="clip4800c7polar-for-traces"><path d="M610,0A610,610 0,1,0 -610,-7.470345474798854e-14A610,610 0,1,0 610,1.4940690949597708e-13Z" transform="translate(610,610)"/></clipPath></g><g class="gradients"/><g class="patterns"/></defs><g class="bglayer"/><g class="layer-below"><g class="imagelayer"/><g class="shapelayer"/></g><g class="cartesianlayer"/><g class="polarlayer"><g class="polar"><g class="polarsublayer draglayer"/><g class="polarsublayer plotbg"><path d="M610,0A610,610 0,1,0 -610,-7.470345474798854e-14A610,610 0,1,0 610,1.4940690949597708e-13Z" transform="translate(875,710)" style="fill: rgb(229, 236, 246); fill-opacity: 1;"/></g><g class="polarsublayer backplot"><g class="maplayer"/></g><g class="polarsublayer angular-grid" style="fill: none;"><path class="angularaxisgrid" d="M875,710L1485,710" style="stroke: rgb(255, 255, 255); stroke-opacity: 1; stroke-width: 1px;"/><path class="angularaxisgrid" d="M875,710L1063.500366568718,129.85552505995634" style="stroke: rgb(255, 255, 255); stroke-opacity: 1; stroke-width: 1px;"/><path class="angularaxisgrid" d="M875,710L381.4996334312821,351.45099610159133" style="stroke: rgb(255, 255, 255); stroke-opacity: 1; stroke-width: 1px;"/><path class="angularaxisgrid" d="M875,710L381.49963343128206,1068.5490038984085" style="stroke: rgb(255, 255, 255); stroke-opacity: 1; stroke-width: 1px;"/><path class="angularaxisgrid" d="M875,710L1063.5003665687177,1290.1444749400437" style="stroke: rgb(255, 255, 255); stroke-opacity: 1; stroke-width: 1px;"/></g><g class="polarsublayer radial-grid" transform="translate(875,710)" style="fill: none;"><path class="xgrid" d="M152.5,0A152.5,152.5 0,1,0 -152.5,-1.8675863686997135e-14A152.5,152.5 0,1,0 152.5,3.735172737399427e-14Z" style="stroke: rgb(255, 255, 255); stroke-opacity: 1; stroke-width: 1px;"/><path class="xgrid" d="M305,0A305,305 0,1,0 -305,-3.735172737399427e-14A305,305 0,1,0 305,7.470345474798854e-14Z" style="stroke: rgb(255, 255, 255); stroke-opacity: 1; stroke-width: 1px;"/><path class="xgrid" d="M457.5,0A457.5,457.5 0,1,0 -457.5,-5.602759106099141e-14A457.5,457.5 0,1,0 457.5,1.1205518212198282e-13Z" style="stroke: rgb(255, 255, 255); stroke-opacity: 1; stroke-width: 1px;"/></g><g class="polarsublayer frontplot" transform="translate(265,100)"><g class="barlayer"/><g class="scatterlayer"><g class="trace scatter trace5fc2fd" style="stroke-miterlimit: 2; opacity: 1;"><g class="fills" clip-path="url(#clip4800c7polar-for-traces)"><g><path class="js-fill" d="M952.9,610L749.37,181.06L308.96,391.29L394.41,766.64L672.51,802.4Z" style="fill: rgb(99, 110, 250); fill-opacity: 0.5; stroke-width: 0;"/></g></g><g class="errorbars"/><g class="lines"><path class="js-line" d="M952.9,610L749.37,181.06L308.96,391.29L394.41,766.64L672.51,802.4" clip-path="url(#clip4800c7polar-for-traces)" style="vector-effect: none; fill: none; stroke: rgb(99, 110, 250); stroke-opacity: 1; stroke-width: 2px; opacity: 1;"/></g><g class="points"><path class="point" transform="translate(952.9,610)" d="M3,0A3,3 0 1,1 0,-3A3,3 0 0,1 3,0Z" style="opacity: 1; stroke-width: 0px; fill: rgb(99, 110, 250); fill-opacity: 1;"/><path class="point" transform="translate(749.37,181.06)" d="M3,0A3,3 0 1,1 0,-3A3,3 0 0,1 3,0Z" style="opacity: 1; stroke-width: 0px; fill: rgb(99, 110, 250); fill-opacity: 1;"/><path class="point" transform="translate(308.96,391.29)" d="M3,0A3,3 0 1,1 0,-3A3,3 0 0,1 3,0Z" style="opacity: 1; stroke-width: 0px; fill: rgb(99, 110, 250); fill-opacity: 1;"/><path class="point" transform="translate(394.41,766.64)" d="M3,0A3,3 0 1,1 0,-3A3,3 0 0,1 3,0Z" style="opacity: 1; stroke-width: 0px; fill: rgb(99, 110, 250); fill-opacity: 1;"/><path class="point" transform="translate(672.51,802.4)" d="M3,0A3,3 0 1,1 0,-3A3,3 0 0,1 3,0Z" style="opacity: 1; stroke-width: 0px; fill: rgb(99, 110, 250); fill-opacity: 1;"/></g><g class="text"/></g><g class="trace scatter trace72a97d" style="stroke-miterlimit: 2; opacity: 1;"><g class="fills" clip-path="url(#clip4800c7polar-for-traces)"><g><path class="js-fill" d="M1147.34,610L702.05,326.69L407.66,462.99L205.77,903.69L676.02,813.2Z" style="fill: rgb(239, 85, 59); fill-opacity: 0.5; stroke-width: 0;"/></g></g><g class="errorbars"/><g class="lines"><path class="js-line" d="M1147.34,610L702.05,326.69L407.66,462.99L205.77,903.69L676.02,813.2" clip-path="url(#clip4800c7polar-for-traces)" style="vector-effect: none; fill: none; stroke: rgb(239, 85, 59); stroke-opacity: 1; stroke-width: 2px; opacity: 1;"/></g><g class="points"><path class="point" transform="translate(1147.34,610)" d="M3,0A3,3 0 1,1 0,-3A3,3 0 0,1 3,0Z" style="opacity: 1; stroke-width: 0px; fill: rgb(239, 85, 59); fill-opacity: 1;"/><path class="point" transform="translate(702.05,326.69)" d="M3,0A3,3 0 1,1 0,-3A3,3 0 0,1 3,0Z" style="opacity: 1; stroke-width: 0px; fill: rgb(239, 85, 59); fill-opacity: 1;"/><path class="point" transform="translate(407.66,462.99)" d="M3,0A3,3 0 1,1 0,-3A3,3 0 0,1 3,0Z" style="opacity: 1; stroke-width: 0px; fill: rgb(239, 85, 59); fill-opacity: 1;"/><path class="point" transform="translate(205.77,903.69)" d="M3,0A3,3 0 1,1 0,-3A3,3 0 0,1 3,0Z" style="opacity: 1; stroke-width: 0px; fill: rgb(239, 85, 59); fill-opacity: 1;"/><path class="point" transform="translate(676.02,813.2)" d="M3,0A3,3 0 1,1 0,-3A3,3 0 0,1 3,0Z" style="opacity: 1; stroke-width: 0px; fill: rgb(239, 85, 59); fill-opacity: 1;"/></g><g class="text"/></g><g class="trace scatter trace2c78ec" style="stroke-miterlimit: 2; opacity: 1;"><g class="fills" clip-path="url(#clip4800c7polar-for-traces)"><g><path class="js-fill" d="M1019.8,610L742.91,200.95L190.52,305.23L320.64,820.23L686.87,846.57Z" style="fill: rgb(0, 204, 150); fill-opacity: 0.5; stroke-width: 0;"/></g></g><g class="errorbars"/><g class="lines"><path class="js-line" d="M1019.8,610L742.91,200.95L190.52,305.23L320.64,820.23L686.87,846.57" clip-path="url(#clip4800c7polar-for-traces)" style="vector-effect: none; fill: none; stroke: rgb(0, 204, 150); stroke-opacity: 1; stroke-width: 2px; opacity: 1;"/></g><g class="points"><path class="point" transform="translate(1019.8,610)" d="M3,0A3,3 0 1,1 0,-3A3,3 0 0,1 3,0Z" style="opacity: 1; stroke-width: 0px; fill: rgb(0, 204, 150); fill-opacity: 1;"/><path class="point" transform="translate(742.91,200.95)" d="M3,0A3,3 0 1,1 0,-3A3,3 0 0,1 3,0Z" style="opacity: 1; stroke-width: 0px; fill: rgb(0, 204, 150); fill-opacity: 1;"/><path class="point" transform="translate(190.52,305.23)" d="M3,0A3,3 0 1,1 0,-3A3,3 0 0,1 3,0Z" style="opacity: 1; stroke-width: 0px; fill: rgb(0, 204, 150); fill-opacity: 1;"/><path class="point" transform="translate(320.64,820.23)" d="M3,0A3,3 0 1,1 0,-3A3,3 0 0,1 3,0Z" style="opacity: 1; stroke-width: 0px; fill: rgb(0, 204, 150); fill-opacity: 1;"/><path class="point" transform="translate(686.87,846.57)" d="M3,0A3,3 0 1,1 0,-3A3,3 0 0,1 3,0Z" style="opacity: 1; stroke-width: 0px; fill: rgb(0, 204, 150); fill-opacity: 1;"/></g><g class="text"/></g></g></g><g class="polarsublayer angular-line"><path d="M610,0A610,610 0,1,0 -610,-7.470345474798854e-14A610,610 0,1,0 610,1.4940690949597708e-13Z" transform="translate(875,710)" stroke-width="1" style="fill: none; stroke: rgb(255, 255, 255); stroke-opacity: 1;"/></g><g class="polarsublayer radial-line"><line x1="0" y1="0" x2="610" y2="0" transform="translate(875,710)" stroke-width="1" style="fill: none; stroke: rgb(255, 255, 255); stroke-opacity: 1;"/></g><g class="polarsublayer angular-axis"><g class="angularaxistick"><text text-anchor="start" x="7.5" y="12.25" transform="translate(1485,710)" style="font-family: 'Open Sans', verdana, arial, sans-serif; font-size: 35px; fill: rgb(0, 0, 0); fill-opacity: 1; white-space: pre; opacity: 1;">(-)Proximity</text></g><g class="angularaxistick"><text text-anchor="start" x="2.317627457812106" y="-10.004861305186619" transform="translate(1063.500366568718,129.85552505995634)" style="font-family: 'Open Sans', verdana, arial, sans-serif; font-size: 35px; fill: rgb(0, 0, 0); fill-opacity: 1; white-space: pre; opacity: 1;">(-)Feasibility</text></g><g class="angularaxistick"><text text-anchor="end" x="-6.067627457812105" y="1.3875720228522432" transform="translate(381.4996334312821,351.45099610159133)" style="font-family: 'Open Sans', verdana, arial, sans-serif; font-size: 35px; fill: rgb(0, 0, 0); fill-opacity: 1; white-space: pre; opacity: 1;">DiscriminativePower</text></g><g class="angularaxistick"><text text-anchor="end" x="-6.067627457812106" y="34.89133140352321" transform="translate(381.49963343128206,1068.5490038984085)" style="font-family: 'Open Sans', verdana, arial, sans-serif; font-size: 35px; fill: rgb(0, 0, 0); fill-opacity: 1; white-space: pre; opacity: 1;">(-)Sparsity</text></g><g class="angularaxistick"><text text-anchor="start" x="2.317627457812104" y="44.205360123637135" transform="translate(1063.5003665687177,1290.1444749400437)" style="font-family: 'Open Sans', verdana, arial, sans-serif; font-size: 35px; fill: rgb(0, 0, 0); fill-opacity: 1; white-space: pre; opacity: 1;">(-)Instability</text></g></g><g class="polarsublayer radial-axis" transform="translate(875,710)"><g class="xtick"><text text-anchor="middle" x="0" y="42.5" transform="" style="font-family: 'Open Sans', verdana, arial, sans-serif; font-size: 35px; fill: rgb(0, 0, 0); fill-opacity: 1; white-space: pre; opacity: 1;">0</text></g><g class="xtick"><text text-anchor="middle" x="0" y="42.5" transform="translate(152.5,0)" style="font-family: 'Open Sans', verdana, arial, sans-serif; font-size: 35px; fill: rgb(0, 0, 0); fill-opacity: 1; white-space: pre; opacity: 1;">25</text></g><g class="xtick"><text text-anchor="middle" x="0" y="42.5" transform="translate(305,0)" style="font-family: 'Open Sans', verdana, arial, sans-serif; font-size: 35px; fill: rgb(0, 0, 0); fill-opacity: 1; white-space: pre; opacity: 1;">50</text></g><g class="xtick"><text text-anchor="middle" x="0" y="42.5" transform="translate(457.5,0)" style="font-family: 'Open Sans', verdana, arial, sans-serif; font-size: 35px; fill: rgb(0, 0, 0); fill-opacity: 1; white-space: pre; opacity: 1;">75</text></g><g class="xtick"><text text-anchor="middle" x="0" y="42.5" transform="translate(610,0)" style="font-family: 'Open Sans', verdana, arial, sans-serif; font-size: 35px; fill: rgb(0, 0, 0); fill-opacity: 1; white-space: pre; opacity: 1;">100</text></g></g></g></g><g class="smithlayer"/><g class="ternarylayer"/><g class="geolayer"/><g class="funnelarealayer"/><g class="pielayer"/><g class="iciclelayer"/><g class="treemaplayer"/><g class="sunburstlayer"/><g class="glimages"/><defs id="topdefs-4800c7"><g class="clips"/></defs><g class="layer-above"><g class="imagelayer"/><g class="shapelayer"/></g><g class="infolayer"><g class="g-gtitle"/><g class="g-polartitle"/></g></svg>