<svg class="main-svg" xmlns="http://www.w3.org/2000/svg" xmlns:xlink="http://www.w3.org/1999/xlink" width="1750" height="1400" style="" viewBox="0 0 1750 1400"><rect x="0" y="0" width="1750" height="1400" style="fill: rgb(255, 255, 255); fill-opacity: 1;"/><defs id="defs-cc210d"><g class="clips"><clipPath id="clipcc210dpolar-for-traces"><path d="M610,0A610,610 0,1,0 -610,-7.470345474798854e-14A610,610 0,1,0 610,1.4940690949597708e-13Z" transform="translate(610,610)"/></clipPath></g><g class="gradients"/><g class="patterns"/></defs><g class="bglayer"/><g class="layer-below"><g class="imagelayer"/><g class="shapelayer"/></g><g class="cartesianlayer"/><g class="polarlayer"><g class="polar"><g class="polarsublayer draglayer"/><g class="polarsublayer plotbg"><path d="M610,0A610,610 0,1,0 -610,-7.470345474798854e-14A610,610 0,1,0 610,1.4940690949597708e-13Z" transform="translate(875,710)" style="fill: rgb(229, 236, 246); fill-opacity: 1;"/></g><g class="polarsublayer backplot"><g class="maplayer"/></g><g class="polarsublayer angular-grid" style="fill: none;"><path class="angularaxisgrid" d="M875,710L1485,710" style="stroke: rgb(255, 255, 255); stroke-opacity: 1; stroke-width: 1px;"/><path class="angularaxisgrid" d="M875,710L1063.500366568718,129.85552505995634" style="stroke: rgb(255, 255, 255); stroke-opacity: 1; stroke-width: 1px;"/><path class="angularaxisgrid" d="M875,710L381.4996334312821,351.45099610159133" style="stroke: rgb(255, 255, 255); stroke-opacity: 1; stroke-width: 1px;"/><path class="angularaxisgrid" d="M875,710L381.49963343128206,1068.5490038984085" style="stroke: rgb(255, 255, 255); stroke-opacity: 1; stroke-width: 1px;"/><path class="angularaxisgrid" d="M875,710L1063.5003665687177,1290.1444749400437" style="stroke: rgb(255, 255, 255); stroke-opacity: 1; stroke-width: 1px;"/></g><g class="polarsublayer radial-grid" transform="translate(875,710)" style="fill: none;"><path class="xgrid" d="M152.5,0A152.5,152.5 0,1,0 -152.5,-1.8675863686997135e-14A152.5,152.5 0,1,0 152.5,3.735172737399427e-14Z" style="stroke: rgb(255, 255, 255); stroke-opacity: 1; stroke-width: 1px;"/><path class="xgrid" d="M305,0A305,305 0,1,0 -305,-3.735172737399427e-14A305,305 0,1,0 305,7.470345474798854e-14Z" style="stroke: rgb(255, 255, 255); stroke-opacity: 1; stroke-width: 1px;"/><path class="xgrid" d="M457.5,0A457.5,457.5 0,1,0 -457.5,-5.602759106099141e-14A457.5,457.5 0,1,0 457.5,1.1205518212198282e-13Z" style="stroke: rgb(255, 255, 255); stroke-opacity: 1; stroke-width: 1px;"/></g><g class="polarsublayer frontplot" transform="translate(265,100)"><g class="barlayer"/><g class="scatterlayer"><g class="trace scatter tracef7d3a8" style="stroke-miterlimit: 2; opacity: 1;"><g class="fills" clip-path="url(#clipcc210dpolar-for-traces)"><g><path class="js-fill" d="M873.26,610L787.01,65.23L264.55,359.02L610,610L775.82,1120.35Z" style="fill: rgb(99, 110, 250); fill-opacity: 0.5; stroke-width: 0;"/></g></g><g class="errorbars"/><g class="lines"><path class="js-line" d="M873.26,610L787.01,65.23L264.55,359.02L610,610L775.82,1120.35" clip-path="url(#clipcc210dpolar-for-traces)" style="vector-effect: none; fill: none; stroke: rgb(99, 110, 250); stroke-opacity: 1; stroke-width: 2px; opacity: 1;"/></g><g class="points"><path class="point" transform="translate(873.26,610)" d="M3,0A3,3 0 1,1 0,-3A3,3 0 0,1 3,0Z" style="opacity: 1; stroke-width: 0px; fill: rgb(99, 110, 250); fill-opacity: 1;"/><path class="point" transform="translate(787.01,65.23)" d="M3,0A3,3 0 1,1 0,-3A3,3 0 0,1 3,0Z" style="opacity: 1; stroke-width: 0px; fill: rgb(99, 110, 250); fill-opacity: 1;"/><path class="point" transform="translate(264.55,359.02)" d="M3,0A3,3 0 1,1 0,-3A3,3 0 0,1 3,0Z" style="opacity: 1; stroke-width: 0px; fill: rgb(99, 110, 250); fill-opacity: 1;"/><path class="point" transform="translate(610,610)" d="M3,0A3,3 0 1,1 0,-3A3,3 0 0,1 3,0Z" style="opacity: 1; stroke-width: 0px; fill: rgb(99, 110, 250); fill-opacity: 1;"/><path class="point" transform="translate(775.82,1120.35)" d="M3,0A3,3 0 1,1 0,-3A3,3 0 0,1 3,0Z" style="opacity: 1; stroke-width: 0px; fill: rgb(99, 110, 250); fill-opacity: 1;"/></g><g class="text"/></g><g class="trace scatter trace01751e" style="stroke-miterlimit: 2; opacity: 1;"><g class="fills" clip-path="url(#clipcc210dpolar-for-traces)"><g><path class="js-fill" d="M1040.21,610L745.63,192.58L535.97,556.22L480.85,703.84L748.9,1037.47Z" style="fill: rgb(239, 85, 59); fill-opacity: 0.5; stroke-width: 0;"/></g></g><g class="errorbars"/><g class="lines"><path class="js-line" d="M1040.21,610L745.63,192.58L535.97,556.22L480.85,703.84L748.9,1037.47" clip-path="url(#clipcc210dpolar-for-traces)" style="vector-effect: none; fill: none; stroke: rgb(239, 85, 59); stroke-opacity: 1; stroke-width: 2px; opacity: 1;"/></g><g class="points"><path class="point" transform="translate(1040.21,610)" d="M3,0A3,3 0 1,1 0,-3A3,3 0 0,1 3,0Z" style="opacity: 1; stroke-width: 0px; fill: rgb(239, 85, 59); fill-opacity: 1;"/><path class="point" transform="translate(745.63,192.58)" d="M3,0A3,3 0 1,1 0,-3A3,3 0 0,1 3,0Z" style="opacity: 1; stroke-width: 0px; fill: rgb(239, 85, 59); fill-opacity: 1;"/><path class="point" transform="translate(535.97,556.22)" d="M3,0A3,3 0 1,1 0,-3A3,3 0 0,1 3,0Z" style="opacity: 1; stroke-width: 0px; fill: rgb(239, 85, 59); fill-opacity: 1;"/><path class="point" transform="translate(480.85,703.84)" d="M3,0A3,3 0 1,1 0,-3A3,3 0 0,1 3,0Z" style="opacity: 1; stroke-width: 0px; fill: rgb(239, 85, 59); fill-opacity: 1;"/><path class="point" transform="translate(748.9,1037.47)" d="M3,0A3,3 0 1,1 0,-3A3,3 0 0,1 3,0Z" style="opacity: 1; stroke-width: 0px; fill: rgb(239, 85, 59); fill-opacity: 1;"/></g><g class="text"/></g><g class="trace scatter trace1f774f" style="stroke-miterlimit: 2; opacity: 1;"><g class="fills" clip-path="url(#clipcc210dpolar-for-traces)"><g><path class="js-fill" d="M873.26,610L770.91,114.75L180.65,298.06L442.78,731.49L758.82,1068.01Z" style="fill: rgb(0, 204, 150); fill-opacity: 0.5; stroke-width: 0;"/></g></g><g class="errorbars"/><g class="lines"><path class="js-line" d="M873.26,610L770.91,114.75L180.65,298.06L442.78,731.49L758.82,1068.01" clip-path="url(#clipcc210dpolar-for-traces)" style="vector-effect: none; fill: none; stroke: rgb(0, 204, 150); stroke-opacity: 1; stroke-width: 2px; opacity: 1;"/></g><g class="points"><path class="point" transform="translate(873.26,610)" d="M3,0A3,3 0 1,1 0,-3A3,3 0 0,1 3,0Z" style="opacity: 1; stroke-width: 0px; fill: rgb(0, 204, 150); fill-opacity: 1;"/><path class="point" transform="translate(770.91,114.75)" d="M3,0A3,3 0 1,1 0,-3A3,3 0 0,1 3,0Z" style="opacity: 1; stroke-width: 0px; fill: rgb(0, 204, 150); fill-opacity: 1;"/><path class="point" transform="translate(180.65,298.06)" d="M3,0A3,3 0 1,1 0,-3A3,3 0 0,1 3,0Z" style="opacity: 1; stroke-width: 0px; fill: rgb(0, 204, 150); fill-opacity: 1;"/><path class="point" transform="translate(442.78,731.49)" d="M3,0A3,3 0 1,1 0,-3A3,3 0 0,1 3,0Z" style="opacity: 1; stroke-width: 0px; fill: rgb(0, 204, 150); fill-opacity: 1;"/><path class="point" transform="translate(758.82,1068.01)" d="M3,0A3,3 0 1,1 0,-3A3,3 0 0,1 3,0Z" style="opacity: 1; stroke-width: 0px; fill: rgb(0, 204, 150); fill-opacity: 1;"/></g><g class="text"/></g></g></g><g class="polarsublayer angular-line"><path d="M610,0A610,610 0,1,0 -610,-7.470345474798854e-14A610,610 0,1,0 610,1.4940690949597708e-13Z" transform="translate(875,710)" stroke-width="1" style="fill: none; stroke: rgb(255, 255, 255); stroke-opacity: 1;"/></g><g class="polarsublayer radial-line"><line x1="0" y1="0" x2="610" y2="0" transform="translate(875,710)" stroke-width="1" style="fill: none; stroke: rgb(255, 255, 255); stroke-opacity: 1;"/></g><g class="polarsublayer angular-axis"><g class="angularaxistick"><text text-anchor="start" x="7.5" y="12.25" transform="translate(1485,710)" style="font-family: 'Open Sans', verdana, arial, sans-serif; font-size: 35px; fill: rgb(0, 0, 0); fill-opacity: 1; white-space: pre; opacity: 1;">(-)Proximity</text></g><g class="angularaxistick"><text text-anchor="start" x="2.317627457812106" y="-10.004861305186619" transform="translate(1063.500366568718,129.85552505995634)" style="font-family: 'Open Sans', verdana, arial, sans-serif; font-size: 35px; fill: rgb(0, 0, 0); fill-opacity: 1; white-space: pre; opacity: 1;">(-)Feasibility</text></g><g class="angularaxistick"><text text-anchor="end" x="-6.067627457812105" y="1.3875720228522432" transform="translate(381.4996334312821,351.45099610159133)" style="font-family: 'Open Sans', verdana, arial, sans-serif; font-size: 35px; fill: rgb(0, 0, 0); fill-opacity: 1; white-space: pre; opacity: 1;">DiscriminativePower</text></g><g class="angularaxistick"><text text-anchor="end" x="-6.067627457812106" y="34.89133140352321" transform="translate(381.49963343128206,1068.5490038984085)" style="font-family: 'Open Sans', verdana, arial, sans-serif; font-size: 35px; fill: rgb(0, 0, 0); fill-opacity: 1; white-space: pre; opacity: 1;">(-)Sparsity</text></g><g class="angularaxistick"><text text-anchor="start" x="2.317627457812104" y="44.205360123637135" transform="translate(1063.5003665687177,1290.1444749400437)" style="font-family: 'Open Sans', verdana, arial, sans-serif; font-size: 35px; fill: rgb(0, 0, 0); fill-opacity: 1; white-space: pre; opacity: 1;">(-)Instability</text></g></g><g class="polarsublayer radial-axis" transform="translate(875,710)"><g class="xtick"><text text-anchor="middle" x="0" y="42.5" transform="" style="font-family: 'Open Sans', verdana, arial, sans-serif; font-size: 35px; fill: rgb(0, 0, 0); fill-opacity: 1; white-space: pre; opacity: 1;">0</text></g><g class="xtick"><text text-anchor="middle" x="0" y="42.5" transform="translate(152.5,0)" style="font-family: 'Open Sans', verdana, arial, sans-serif; font-size: 35px; fill: rgb(0, 0, 0); fill-opacity: 1; white-space: pre; opacity: 1;">25</text></g><g class="xtick"><text text-anchor="middle" x="0" y="42.5" transform="translate(305,0)" style="font-family: 'Open Sans', verdana, arial, sans-serif; font-size: 35px; fill: rgb(0, 0, 0); fill-opacity: 1; white-space: pre; opacity: 1;">50</text></g><g class="xtick"><text text-anchor="middle" x="0" y="42.5" transform="translate(457.5,0)" style="font-family: 'Open Sans', verdana, arial, sans-serif; font-size: 35px; fill: rgb(0, 0, 0); fill-opacity: 1; white-space: pre; opacity: 1;">75</text></g><g class="xtick"><text text-anchor="middle" x="0" y="42.5" transform="translate(610,0)" style="font-family: 'Open Sans', verdana, arial, sans-serif; font-size: 35px; fill: rgb(0, 0, 0); fill-opacity: 1; white-space: pre; opacity: 1;">100</text></g></g></g></g><g class="smithlayer"/><g class="ternarylayer"/><g class="geolayer"/><g class="funnelarealayer"/><g class="pielayer"/><g class="iciclelayer"/><g class="treemaplayer"/><g class="sunburstlayer"/><g class="glimages"/><defs id="topdefs-cc210d"><g class="clips"/></defs><g class="layer-above"><g class="imagelayer"/><g class="shapelayer"/></g><g class="infolayer"><g class="g-gtitle"/><g class="g-polartitle"/></g></svg>